<?xml version="1.0" encoding="utf-8"?>
<!-- Generator: Adobe Illustrator 19.0.0, SVG Export Plug-In . SVG Version: 6.00 Build 0)  -->
<svg version="1.1" id="Layer_1" xmlns="http://www.w3.org/2000/svg" xmlns:xlink="http://www.w3.org/1999/xlink" x="0px" y="0px"
	 viewBox="-467 268 25 25" style="enable-background:new -467 268 25 25;" xml:space="preserve">
<style type="text/css">
	.st0{fill:#DD0000;}
</style>
<title>noun_376938_cc</title>
<desc>Created using Figma</desc>
<g id="Canvas" transform="translate(-4909 -2758)">
	<g id="noun_376938_cc">
		<g id="Group_2_">
			<g id="Group_1_">
				<g id="Group">
					<g id="Vector">
						<g transform="translate(4909 2758)">
							<path id="path0_fill" class="st0" d="M4454.5,3026c-3.3,0-6.5,1.3-8.8,3.7s-3.7,5.5-3.7,8.8s1.3,6.5,3.7,8.8s5.5,3.7,8.8,3.7
								s6.5-1.3,8.8-3.7s3.7-5.5,3.7-8.8s-1.3-6.5-3.7-8.8S4457.8,3026,4454.5,3026L4454.5,3026z M4454.5,3032c2.8,0,5,2.2,5,5
								c0,3.8-3.6,7.4-4.6,8.4l-0.4,0.4l-0.4-0.4c-1-1-4.6-4.5-4.6-8.4C4449.5,3034.2,4451.7,3032,4454.5,3032z M4454.5,3033
								c-2.2,0-4,1.8-4,4c0,2.9,2.8,6,4,7.2c1.2-1.2,4-4.3,4-7.2C4458.5,3034.8,4456.7,3033,4454.5,3033z M4454.5,3035
								c1.1,0,2,0.9,2,2s-0.9,2-2,2s-2-0.9-2-2S4453.4,3035,4454.5,3035z M4454.5,3036c-0.6,0-1,0.4-1,1s0.4,1,1,1s1-0.4,1-1
								S4455.1,3036,4454.5,3036z"/>
						</g>
					</g>
				</g>
			</g>
		</g>
	</g>
</g>
</svg>
