<?xml version="1.0" encoding="utf-8"?>
<!-- Generator: Adobe Illustrator 19.0.0, SVG Export Plug-In . SVG Version: 6.00 Build 0)  -->
<svg version="1.1" id="Layer_1" xmlns="http://www.w3.org/2000/svg" xmlns:xlink="http://www.w3.org/1999/xlink" x="0px" y="0px"
	 viewBox="-467 268 25 25" style="enable-background:new -467 268 25 25;" xml:space="preserve">
<style type="text/css">
	.st0{fill:#DD0000;}
</style>
<title>noun_376853_cc</title>
<desc>Created using Figma</desc>
<g id="Canvas" transform="translate(-4909 -2705)">
	<g id="noun_376853_cc">
		<g id="Group">
			<g id="Vector">
				<g transform="translate(4909 2705)">
					<path id="path0_fill" class="st0" d="M4454.5,2973c-3.3,0-6.5,1.3-8.8,3.7s-3.7,5.5-3.7,8.8s1.3,6.5,3.7,8.8s5.5,3.7,8.8,3.7
						s6.5-1.3,8.8-3.7s3.7-5.5,3.7-8.8s-1.3-6.5-3.7-8.8S4457.8,2973,4454.5,2973L4454.5,2973z M4454.5,2977.5c4.4,0,8,3.6,8,8
						s-3.6,8-8,8s-8-3.6-8-8S4450.1,2977.5,4454.5,2977.5z M4454.5,2978.5c-0.2,0-0.5,0.1-0.8,0.4s-0.6,0.8-0.8,1.4
						c-0.2,0.6-0.4,1.3-0.6,2.1h4.3c-0.1-0.8-0.3-1.5-0.6-2.1c-0.2-0.6-0.5-1.1-0.8-1.4S4454.7,2978.5,4454.5,2978.5z
						 M4452.6,2978.8c-2,0.6-3.6,1.9-4.4,3.7h3.1c0.2-0.9,0.4-1.8,0.7-2.5C4452.1,2979.5,4452.4,2979.1,4452.6,2978.8z
						 M4456.4,2978.8c0.2,0.4,0.5,0.8,0.6,1.3c0.3,0.7,0.5,1.6,0.7,2.5h3.1C4460,2980.7,4458.4,2979.3,4456.4,2978.8z
						 M4447.8,2983.5c-0.2,0.6-0.3,1.3-0.3,2c0,0.7,0.1,1.4,0.3,2h3.4c-0.1-0.6-0.1-1.3-0.1-2s0-1.4,0.1-2H4447.8z M4452.2,2983.5
						c-0.1,0.6-0.1,1.3-0.1,2c0,0.7,0.1,1.4,0.1,2h4.6c0.1-0.6,0.1-1.3,0.1-2c0-0.7-0.1-1.4-0.1-2H4452.2z M4457.8,2983.5
						c0.1,0.6,0.1,1.3,0.1,2s0,1.4-0.1,2h3.4c0.2-0.6,0.3-1.3,0.3-2c0-0.7-0.1-1.4-0.3-2H4457.8z M4448.2,2988.5
						c0.9,1.8,2.5,3.2,4.4,3.7c-0.2-0.4-0.5-0.8-0.6-1.2c-0.3-0.7-0.5-1.6-0.7-2.5H4448.2z M4452.3,2988.5c0.1,0.8,0.3,1.5,0.6,2.1
						c0.2,0.6,0.5,1.1,0.8,1.4s0.5,0.4,0.8,0.4s0.5-0.1,0.8-0.4s0.6-0.8,0.8-1.4c0.2-0.6,0.4-1.3,0.6-2.1H4452.3z M4457.7,2988.5
						c-0.2,0.9-0.4,1.8-0.7,2.5c-0.2,0.5-0.4,0.9-0.6,1.2c2-0.6,3.6-1.9,4.4-3.7H4457.7z"/>
				</g>
			</g>
		</g>
	</g>
</g>
<rect id="XMLID_41_" x="-127" y="236.6" class="st0" width="87" height="87"/>
</svg>
