<?xml version="1.0" encoding="utf-8"?>
<!-- Generator: Adobe Illustrator 19.0.0, SVG Export Plug-In . SVG Version: 6.00 Build 0)  -->
<svg version="1.1" id="Layer_1" xmlns="http://www.w3.org/2000/svg" xmlns:xlink="http://www.w3.org/1999/xlink" x="0px" y="0px"
	 viewBox="-467 268 25 25" style="enable-background:new -467 268 25 25;" xml:space="preserve">
<style type="text/css">
	.st0{fill:#DD0000;}
</style>
<title>noun_555068_cc</title>
<desc>Created using Figma</desc>
<g id="Canvas" transform="translate(-4909 -2651)">
	<g id="noun_555068_cc">
		<g id="Vector">
			<g transform="translate(4909 2651)">
				<path id="path0_fill" class="st0" d="M4454.5,2944c-6.9,0-12.5-5.6-12.5-12.5s5.6-12.5,12.5-12.5s12.5,5.6,12.5,12.5
					S4461.4,2944,4454.5,2944z M4457.1,2933.1c-0.7,0.5-1.2,1.2-1.6,2.1c-2.1-0.9-3.7-2.6-4.7-4.6c0.8-0.4,1.5-0.9,2.1-1.6
					c-0.1-1.5-0.9-2.8-2.1-3.6c-1.5,0.6-2.6,2-2.6,3.6c0.1,4.8,3.9,8.6,8.6,8.9c1.8,0,3.3-1.1,3.9-2.6
					C4459.9,2934,4458.6,2933.2,4457.1,2933.1L4457.1,2933.1z"/>
			</g>
		</g>
	</g>
</g>
<rect id="XMLID_41_" x="-207.1" y="236.6" class="st0" width="87" height="87"/>
</svg>
