<?xml version="1.0" encoding="utf-8"?>
<!-- Generator: Adobe Illustrator 19.0.0, SVG Export Plug-In . SVG Version: 6.00 Build 0)  -->
<svg version="1.1" id="Layer_1" xmlns="http://www.w3.org/2000/svg" xmlns:xlink="http://www.w3.org/1999/xlink" x="0px" y="0px"
	 viewBox="-475 275 8 12" style="enable-background:new -475 275 8 12;" xml:space="preserve">
<style type="text/css">
	.st0{fill:#FFFFFF;}
</style>
<title>noun_715033_cc</title>
<desc>Created using Figma</desc>
<g id="Canvas" transform="translate(-5238 -2656)">
	<g id="noun_715033_cc">
		<g id="Group">
			<g id="Vector">
				<g transform="translate(5239 2657)">
					<path id="path0_stroke" class="st0" d="M4288.8,3216.8c-0.1,0.1-0.1,0.2,0,0.4c0.1,0.1,0.2,0.1,0.4,0L4288.8,3216.8z
						 M4295,3212l0.2,0.2c0.1,0,0.1-0.1,0.1-0.2s0-0.1-0.1-0.2L4295,3212z M4289.2,3206.8c-0.1-0.1-0.3-0.1-0.4,0s-0.1,0.3,0,0.4
						L4289.2,3206.8z M4289.2,3217.2l6-5l-0.3-0.4l-6,5L4289.2,3217.2z M4295.2,3211.8l-6-5l-0.3,0.4l6,5L4295.2,3211.8z"/>
				</g>
			</g>
		</g>
	</g>
</g>
<path class="st0" d="M-472.4,283.2c-0.1,0-0.1,0-0.2-0.1c-0.1-0.1-0.1-0.2,0-0.3l2.5-1.9l-2.5-1.9c-0.1-0.1-0.1-0.2,0-0.3
	c0.1-0.1,0.2-0.1,0.3,0l3,2.3l-3,2.2C-472.4,283.2-472.4,283.2-472.4,283.2z"/>
</svg>
